<svg xmlns="http://www.w3.org/2000/svg" xmlns:xlink="http://www.w3.org/1999/xlink" width="40" zoomAndPan="magnify" viewBox="0 0 30 30.000001" height="40" preserveAspectRatio="xMidYMid meet" version="1.0"><defs><clipPath id="id1"><path d="M 1.226562 1.335938 L 28.773438 1.335938 L 28.773438 27.464844 L 1.226562 27.464844 Z M 1.226562 1.335938 " clip-rule="nonzero"/></clipPath></defs><g clip-path="url(#id1)"><path fill="#4f46e5" d="M 2.066406 1.34375 C 2.105469 1.34375 2.152344 1.347656 2.191406 1.355469 L 2.195312 1.355469 L 6.402344 2.066406 C 6.671875 2.113281 6.894531 2.296875 6.996094 2.546875 L 8.949219 7.519531 L 28.007812 7.992188 C 28.226562 7.996094 28.433594 8.09375 28.574219 8.257812 C 28.71875 8.421875 28.785156 8.640625 28.761719 8.859375 L 27.707031 17.496094 C 27.664062 17.859375 27.363281 18.148438 26.996094 18.175781 L 13.40625 19.246094 L 10.714844 21.351562 C 10.710938 21.351562 10.707031 21.355469 10.703125 21.359375 C 10.703125 21.359375 10.699219 21.359375 10.695312 21.363281 C 10.691406 21.363281 10.6875 21.367188 10.6875 21.371094 C 10.195312 21.734375 10.074219 22.230469 10.140625 22.503906 C 10.183594 22.664062 10.242188 22.777344 10.386719 22.867188 C 10.53125 22.957031 10.777344 23.019531 11.203125 22.996094 C 11.203125 22.996094 11.203125 22.996094 11.207031 22.996094 C 11.21875 22.996094 11.234375 22.996094 11.25 22.996094 L 11.257812 22.996094 L 27.460938 23.042969 L 27.464844 23.042969 C 27.890625 23.039062 28.25 23.394531 28.246094 23.816406 C 28.246094 24.238281 27.886719 24.59375 27.460938 24.585938 L 26.273438 24.585938 C 26.714844 24.863281 27.007812 25.351562 27.007812 25.902344 C 27.007812 26.765625 26.296875 27.46875 25.429688 27.46875 C 24.5625 27.46875 23.855469 26.765625 23.855469 25.902344 C 23.855469 25.347656 24.148438 24.855469 24.59375 24.578125 L 11.25 24.539062 C 11.730469 24.808594 12.058594 25.320312 12.058594 25.902344 C 12.058594 26.765625 11.347656 27.46875 10.480469 27.46875 C 9.613281 27.46875 8.902344 26.765625 8.902344 25.902344 C 8.902344 25.15625 9.4375 24.527344 10.148438 24.375 C 9.476562 24.136719 8.960938 23.652344 8.644531 22.910156 C 8.636719 22.902344 8.632812 22.894531 8.632812 22.882812 C 8.386719 21.914062 8.820312 20.859375 9.714844 20.171875 C 9.714844 20.167969 9.71875 20.167969 9.722656 20.164062 C 9.722656 20.164062 9.722656 20.160156 9.726562 20.160156 C 9.734375 20.148438 9.742188 20.140625 9.75 20.132812 L 11.660156 18.648438 L 5.707031 3.515625 L 1.933594 2.875 L 1.929688 2.875 C 1.535156 2.8125 1.242188 2.445312 1.277344 2.046875 C 1.3125 1.648438 1.664062 1.335938 2.066406 1.34375 Z M 9.523438 8.710938 L 10.621094 11.503906 L 12.050781 11.503906 L 12.050781 8.773438 Z M 12.597656 8.789062 L 12.597656 11.503906 L 15.238281 11.503906 L 15.238281 8.855469 Z M 15.785156 8.867188 L 15.785156 11.503906 L 18.425781 11.503906 L 18.425781 8.933594 Z M 18.972656 8.945312 L 18.972656 11.503906 L 21.613281 11.503906 L 21.613281 9.011719 Z M 22.15625 9.027344 L 22.15625 11.503906 L 24.800781 11.503906 L 24.800781 9.09375 Z M 25.34375 9.105469 L 25.34375 11.503906 L 27.28125 11.503906 L 27.566406 9.160156 Z M 27.214844 12.042969 L 25.34375 12.042969 L 25.34375 14.496094 L 26.917969 14.496094 Z M 24.800781 12.042969 L 22.15625 12.042969 L 22.15625 14.496094 L 24.800781 14.496094 Z M 21.613281 12.042969 L 18.972656 12.042969 L 18.972656 14.496094 L 21.613281 14.496094 Z M 18.425781 12.042969 L 15.785156 12.042969 L 15.785156 14.496094 L 18.425781 14.496094 Z M 15.238281 12.042969 L 12.597656 12.042969 L 12.597656 14.496094 L 15.238281 14.496094 Z M 12.050781 12.042969 L 10.828125 12.042969 L 11.792969 14.496094 L 12.050781 14.496094 Z M 26.851562 15.039062 L 25.34375 15.039062 L 25.34375 16.796875 L 26.648438 16.695312 Z M 24.796875 15.039062 L 22.15625 15.039062 L 22.15625 17.046875 L 24.796875 16.839844 Z M 21.613281 15.039062 L 18.96875 15.039062 L 18.96875 17.300781 L 21.613281 17.09375 Z M 18.425781 15.039062 L 15.78125 15.039062 L 15.78125 17.554688 L 18.425781 17.34375 Z M 15.238281 15.039062 L 12.597656 15.039062 L 12.597656 16.53125 L 13.097656 17.804688 C 13.160156 17.773438 13.234375 17.753906 13.304688 17.746094 L 15.238281 17.59375 Z M 12.050781 15.039062 L 12.007812 15.039062 L 12.050781 15.148438 Z M 25.429688 24.984375 C 24.914062 24.984375 24.503906 25.390625 24.503906 25.902344 C 24.503906 26.414062 24.914062 26.820312 25.429688 26.820312 C 25.945312 26.820312 26.355469 26.414062 26.355469 25.902344 C 26.355469 25.390625 25.945312 24.984375 25.429688 24.984375 Z M 10.480469 24.984375 C 9.964844 24.984375 9.550781 25.390625 9.550781 25.902344 C 9.550781 26.414062 9.964844 26.820312 10.480469 26.820312 C 10.996094 26.820312 11.40625 26.414062 11.40625 25.902344 C 11.40625 25.390625 10.996094 24.984375 10.480469 24.984375 Z M 25.429688 25.421875 C 25.710938 25.421875 25.933594 25.644531 25.933594 25.921875 C 25.933594 26.199219 25.710938 26.417969 25.429688 26.417969 C 25.148438 26.417969 24.925781 26.199219 24.925781 25.921875 C 24.925781 25.644531 25.148438 25.421875 25.429688 25.421875 Z M 10.480469 25.421875 C 10.757812 25.421875 10.984375 25.644531 10.984375 25.921875 C 10.984375 26.199219 10.757812 26.417969 10.480469 26.417969 C 10.199219 26.417969 9.976562 26.199219 9.976562 25.921875 C 9.976562 25.644531 10.199219 25.421875 10.480469 25.421875 Z M 10.480469 25.421875 " fill-opacity="1" fill-rule="nonzero"/></g></svg>